<svg width="236" height="211" viewBox="0 0 236 211" fill="none" xmlns="http://www.w3.org/2000/svg">
<g id="gybex-logo">
<g id="GYBEX">
<path d="M92.5786 97.6923C91.6892 95.6965 90.3683 94.1431 88.6158 93.0321C86.8641 91.8888 84.8078 91.2882 82.4469 91.2301C80.086 91.1721 77.938 91.6694 76.0029 92.7221C74.1009 93.7433 72.575 95.2591 71.4254 97.2695C70.3088 99.2484 69.718 101.564 69.6528 104.216C69.5876 106.868 70.064 109.209 71.082 111.241C72.1323 113.273 73.5818 114.862 75.4306 116.007C77.3124 117.122 79.4338 117.708 81.7947 117.766C85.0934 117.847 87.8343 116.927 90.0173 115.007C92.2003 113.087 93.511 110.449 93.9494 107.094L80.4633 106.763L80.5515 103.173L98.7432 103.62L98.6597 107.016C98.3326 109.791 97.3967 112.324 95.8517 114.616C94.3076 116.876 92.3061 118.655 89.8472 119.954C87.389 121.22 84.6723 121.817 81.6969 121.744C78.5599 121.667 75.7156 120.869 73.1641 119.35C70.6134 117.798 68.6102 115.694 67.1546 113.037C65.7313 110.381 65.0602 107.404 65.1413 104.105C65.2224 100.806 66.0389 97.8652 67.591 95.2822C69.1762 92.6676 71.2803 90.6644 73.9033 89.2727C76.5272 87.8486 79.4076 87.1751 82.5447 87.2522C86.1345 87.3404 89.282 88.3077 91.9873 90.154C94.7249 92.0011 96.6846 94.5572 97.8664 97.8223L92.5786 97.6923ZM131.062 88.833L119.532 109.616L119.219 122.375L114.804 122.266L115.118 109.508L104.575 88.182L109.474 88.3024L117.397 105.632L126.162 88.7126L131.062 88.833Z" fill="#FFEE00"/>
<path d="M154.671 105.82C155.895 106.044 156.999 106.573 157.981 107.406C158.996 108.24 159.78 109.262 160.333 110.473C160.918 111.685 161.194 112.97 161.161 114.328C161.118 116.042 160.644 117.584 159.736 118.953C158.83 120.29 157.526 121.342 155.824 122.109C154.156 122.845 152.189 123.185 149.926 123.129L137.313 122.819L138.144 89.0071L150.271 89.3052C152.568 89.3616 154.515 89.7978 156.113 90.6137C157.711 91.3973 158.899 92.4458 159.676 93.7593C160.453 95.0728 160.821 96.5381 160.781 98.1551C160.732 100.16 160.141 101.812 159.009 103.111C157.91 104.379 156.464 105.282 154.671 105.82ZM142.199 103.717L149.622 103.9C151.691 103.951 153.304 103.505 154.46 102.563C155.616 101.62 156.215 100.292 156.257 98.5779C156.299 96.8638 155.766 95.5078 154.658 94.5097C153.55 93.5117 151.928 92.9864 149.794 92.934L142.469 92.7539L142.199 103.717ZM149.627 119.481C151.826 119.536 153.553 119.06 154.807 118.056C156.062 117.051 156.711 115.627 156.757 113.783C156.803 111.908 156.192 110.42 154.925 109.321C153.658 108.19 151.941 107.597 149.775 107.544L142.11 107.356L141.817 119.29L149.627 119.481ZM174.647 93.4963L174.369 104.799L186.691 105.102L186.601 108.741L174.279 108.438L173.993 120.08L187.77 120.419L187.681 124.057L169.489 123.61L170.321 89.7494L188.513 90.1965L188.424 93.8349L174.647 93.4963ZM211.027 107.739L220.993 124.876L215.997 124.753L208.22 111.359L200.182 124.365L195.282 124.244L206.03 107.616L196.065 90.4307L201.013 90.5523L208.837 103.996L216.925 90.9434L221.873 91.065L211.027 107.739Z" fill="#126DF5"/>
</g>
<g id="Vector">
<path d="M188.651 153.317C192.723 155.668 194.147 160.899 191.473 164.768C179.908 181.505 163.69 194.579 144.741 202.311C123.156 211.12 99.254 212.498 76.7995 206.229C54.345 199.96 34.6139 186.399 20.7139 167.682C6.81392 148.966 -0.465184 126.158 0.0230527 102.849C0.511289 79.5412 8.73912 57.0576 23.4107 38.9397C38.0822 20.8219 58.3639 8.09922 81.0612 2.7756C103.759 -2.54802 127.582 -0.170132 148.779 9.53476C167.388 18.0544 183.044 31.7956 193.898 49.0023C196.407 52.9797 194.766 58.1466 190.599 60.3254L154.488 79.2035C150.321 81.3822 145.231 79.707 142.341 75.9973C137.699 70.0394 131.67 65.2461 124.728 62.0678C115.189 57.7006 104.469 56.6306 94.2547 59.0262C84.0409 61.4218 74.9141 67.147 68.312 75.3C61.7097 83.4531 58.0072 93.5707 57.7875 104.059C57.5678 114.548 60.8434 124.812 67.0984 133.234C73.3534 141.657 82.2324 147.759 92.3369 150.58C102.441 153.401 113.197 152.781 122.911 148.817C129.98 145.932 136.204 141.396 141.091 135.638C144.134 132.052 149.29 130.592 153.362 132.943L188.651 153.317Z" fill="#126DF5"/>
<path d="M148.148 143.658C148.148 145.539 149.673 147.064 151.554 147.064H231.594C233.475 147.064 235 145.539 235 143.658V67.0242C235 65.1432 233.475 63.6183 231.594 63.6183H151.554C149.673 63.6183 148.148 65.1432 148.148 67.0242V68.7272C148.148 70.6082 149.673 72.1331 151.554 72.1331H224.929C226.81 72.1331 228.335 73.658 228.335 75.5391V135.143C228.335 137.024 226.81 138.549 224.929 138.549H151.554C149.673 138.549 148.148 140.074 148.148 141.955V143.658Z" fill="#126DF5"/>
</g>
</g>
</svg>
